<svg xmlns="http://www.w3.org/2000/svg" version="1.2" viewBox="0 0 64 72" width="64" height="72"><title>bluesky-1-svg</title><style>.s0 { fill: #000000 } </style><path fill-rule="evenodd" class="s0" d="m13.9 8.8c7.3 5.5 15.2 16.7 18.1 22.8v15.8c0-0.3-0.1 0.1-0.4 0.9-1.5 4.5-7.4 21.8-20.9 7.9-7.1-7.3-3.9-14.6 9.1-16.8-7.4 1.3-15.7-0.8-18-9-0.7-2.4-1.8-16.9-1.8-18.9 0-9.8 8.6-6.7 13.9-2.7zm36.2 0c-7.3 5.5-15.2 16.7-18.1 22.7v15.9c0-0.3 0.1 0.1 0.4 0.9 1.5 4.5 7.4 21.8 20.9 7.9 7.1-7.3 3.9-14.6-9.1-16.8 7.4 1.3 15.7-0.8 18-9 0.7-2.4 1.8-16.9 1.8-18.9 0-9.8-8.6-6.7-13.9-2.7z"/></svg>